<?xml version="1.0" standalone="no"?>
<!DOCTYPE svg PUBLIC "-//W3C//DTD SVG 20010904//EN"
 "http://www.w3.org/TR/2001/REC-SVG-20010904/DTD/svg10.dtd">
<svg version="1.0" xmlns="http://www.w3.org/2000/svg"
 width="1732.000000pt" height="1732.000000pt" viewBox="0 0 1732.000000 1732.000000"
 preserveAspectRatio="xMidYMid meet">

<g transform="translate(0.000000,1732.000000) scale(0.100000,-0.100000)"
fill="#000000" stroke="none">
<path d="M4635 17309 c-985 -47 -1911 -383 -2700 -980 -587 -445 -1077 -1029
-1404 -1678 -288 -570 -447 -1129 -512 -1801 -17 -172 -25 -7784 -9 -8155 23
-537 100 -956 262 -1423 187 -542 448 -1006 844 -1502 306 -384 803 -812 1251
-1078 157 -93 183 -107 329 -180 453 -226 951 -384 1434 -457 343 -52 57 -48
4410 -52 2853 -3 4088 -1 4215 7 1065 65 2061 469 2868 1163 268 231 533 514
735 786 527 709 840 1512 939 2411 17 157 18 369 18 4275 0 4416 3 4192 -51
4545 -121 790 -434 1535 -914 2175 -674 898 -1639 1539 -2715 1806 -321 79
-624 122 -980 139 -264 12 -7761 11 -8020 -1z m8065 -679 c613 -38 1165 -188
1687 -460 641 -334 1155 -797 1560 -1405 365 -548 583 -1156 670 -1866 16
-135 18 -403 21 -4099 3 -4023 2 -4194 -34 -4470 -207 -1609 -1312 -2945
-2849 -3444 -271 -88 -560 -148 -900 -188 -137 -16 -7931 -24 -8211 -9 -306
17 -554 55 -834 127 -1484 380 -2641 1551 -3006 3040 -48 197 -84 412 -106
624 -19 197 -20 8170 0 8365 86 853 394 1606 926 2264 131 163 396 430 561
565 376 309 787 547 1215 703 400 147 854 239 1260 256 203 9 7896 6 8040 -3z"/>
<path d="M4265 13570 c-211 -42 -393 -222 -450 -445 -13 -52 -15 -563 -15
-4468 0 -3961 2 -4415 16 -4469 49 -191 184 -347 366 -421 l53 -22 4405 -3
c4002 -2 4409 -1 4459 14 188 54 337 203 403 399 l23 70 3 4395 c3 4907 9
4478 -69 4638 -74 152 -227 273 -386 307 -59 13 -679 15 -4418 14 -2392 -1
-4368 -5 -4390 -9z m4150 -312 c43 -73 108 -185 145 -248 37 -63 99 -169 137
-235 39 -66 105 -181 148 -255 43 -74 106 -182 140 -240 93 -158 189 -323 320
-550 65 -113 127 -217 137 -231 9 -14 15 -29 11 -33 -3 -3 -1234 -6 -2735 -6
l-2729 0 3 808 3 807 23 58 c47 116 151 211 264 241 45 13 358 15 2055 15
l2001 1 77 -132z m4620 116 c168 -43 275 -174 295 -359 6 -54 9 -385 8 -820
l-3 -730 -1829 0 -1830 0 -29 50 c-36 60 -173 296 -298 513 -50 86 -129 220
-174 297 -45 77 -171 293 -280 480 -109 187 -228 393 -266 457 -38 64 -69 119
-69 122 0 4 994 6 2208 6 1963 0 2214 -2 2267 -16z m305 -5553 c0 -2100 -4
-3478 -10 -3528 -17 -149 -94 -264 -218 -325 l-67 -33 -4385 0 -4385 0 -58 28
c-106 52 -189 159 -216 278 -7 29 -11 1218 -11 3536 l0 3493 4653 2 c2558 2
4662 1 4674 -1 l23 -3 0 -3447z"/>
<path d="M4820 12881 c-80 -25 -132 -75 -151 -143 -7 -28 -10 -137 -7 -327 3
-246 6 -292 21 -326 49 -111 87 -120 470 -117 267 2 303 4 340 20 49 22 71 44
91 93 21 51 27 590 7 667 -15 61 -55 106 -109 123 -43 14 -622 23 -662 10z
m591 -453 l1 -263 -281 -3 -281 -2 0 263 c0 145 2 266 4 268 2 2 129 3 280 2
l276 -2 1 -263z"/>
<path d="M6117 12877 c-48 -15 -102 -58 -124 -100 -16 -28 -18 -68 -21 -302
-4 -314 3 -383 49 -438 55 -67 184 -83 555 -70 208 8 211 8 253 36 71 47 78
74 85 352 11 430 -11 494 -175 525 -74 14 -574 11 -622 -3z m603 -452 l0 -265
-280 0 -280 0 0 265 0 264 108 3 c59 2 185 2 280 0 l172 -3 0 -264z"/>
<path d="M7417 12875 c-59 -22 -93 -51 -116 -98 -19 -39 -21 -62 -22 -332 -3
-377 6 -412 119 -456 55 -23 66 -23 364 -22 338 2 350 4 406 64 17 18 35 52
41 75 13 52 14 523 1 612 -10 74 -44 126 -99 150 -51 24 -635 29 -694 7z m613
-451 l0 -277 -82 6 c-46 4 -172 7 -280 7 l-198 0 0 263 c0 145 3 266 6 269 3
4 129 7 280 8 l274 1 0 -277z"/>
<path d="M10176 12874 c-163 -39 -299 -171 -340 -329 -57 -216 46 -435 251
-533 l78 -37 930 -3 c668 -2 947 0 990 8 121 24 219 89 285 192 54 83 73 164
68 286 -3 90 -7 106 -41 175 -65 131 -170 212 -316 243 -98 20 -1818 19 -1905
-2z m1924 -198 c64 -34 95 -63 124 -115 77 -142 19 -316 -127 -382 l-52 -24
-870 -3 c-555 -1 -895 2 -938 8 -140 21 -218 115 -220 265 -1 60 3 80 28 130
17 33 46 72 66 88 75 59 32 57 1034 54 877 -2 922 -3 955 -21z"/>
<path d="M6185 10724 c-422 -62 -773 -237 -1051 -526 -134 -139 -218 -261
-304 -441 -164 -343 -208 -744 -123 -1127 140 -639 665 -1160 1308 -1299 451
-98 924 -9 1300 244 465 313 739 805 762 1371 35 842 -533 1577 -1355 1755
-77 16 -140 21 -302 24 -113 2 -218 1 -235 -1z m50 -942 l46 -742 -118 -138
c-184 -216 -766 -892 -810 -942 l-40 -45 -54 59 c-233 254 -362 543 -400 901
-17 165 0 344 51 540 132 501 492 889 980 1055 80 27 282 70 292 61 4 -3 27
-340 53 -749z m452 728 c590 -123 1037 -564 1167 -1154 14 -61 28 -144 32
-183 l7 -73 -717 0 c-583 0 -716 2 -716 13 0 7 -11 193 -24 413 -14 219 -32
525 -41 679 -8 154 -18 293 -20 309 l-5 29 112 -7 c62 -4 154 -15 205 -26z
m1203 -1629 c0 -16 -9 -80 -19 -143 -53 -309 -193 -578 -416 -802 -455 -458
-1149 -583 -1720 -312 -105 50 -275 153 -275 168 0 3 35 46 78 95 42 48 143
165 223 258 263 307 601 699 630 733 l29 32 735 0 735 0 0 -29z"/>
<path d="M9253 10306 c-23 -20 -28 -32 -28 -71 0 -39 5 -51 28 -71 l28 -24
1460 0 1460 0 24 25 c25 24 34 81 19 120 -18 47 32 45 -1513 45 l-1450 0 -28
-24z"/>
<path d="M10704 9400 c-67 -27 -72 -140 -7 -169 17 -8 240 -11 754 -11 627 0
734 2 759 15 50 26 58 101 15 144 l-25 26 -738 2 c-405 1 -747 -2 -758 -7z"/>
<path d="M10465 8323 c-11 -3 -30 -14 -42 -26 l-23 -20 0 -1879 0 -1879 25
-24 24 -25 436 0 c446 0 463 1 492 39 17 22 19 3742 2 3773 -24 45 -52 48
-486 47 -224 -1 -417 -3 -428 -6z m743 -1908 c1 -946 0 -1730 -3 -1743 l-5
-22 -308 2 -307 3 -3 1730 c-1 952 0 1736 3 1743 3 10 71 12 312 10 l308 -3 3
-1720z"/>
<path d="M9274 7566 l-34 -34 2 -1507 3 -1507 28 -24 28 -24 430 0 431 0 29
29 29 29 0 1502 0 1502 -34 34 -34 34 -422 0 -422 0 -34 -34z m751 -1536 l0
-1375 -297 -3 -298 -2 0 1373 c0 756 3 1377 7 1380 4 4 137 6 297 5 l291 -3 0
-1375z"/>
<path d="M11576 7219 l-26 -31 2 -1333 3 -1333 24 -26 24 -26 439 0 c296 0
446 4 460 11 49 27 48 -15 48 1379 0 1394 1 1352 -48 1379 -14 7 -165 11 -460
11 l-440 0 -26 -31z m782 -1361 l2 -1208 -310 0 -310 0 0 1203 c0 662 3 1207
6 1210 4 4 142 6 308 4 l301 -2 3 -1207z"/>
<path d="M8145 6188 c-11 -6 -28 -20 -37 -32 -16 -19 -18 -78 -18 -827 l0
-806 26 -27 27 -26 434 0 434 0 24 25 c14 13 25 32 25 42 1 10 1 372 1 805 1
578 -2 792 -11 808 -25 47 -51 50 -482 50 -274 -1 -409 -4 -423 -12z m735
-863 l0 -675 -302 2 -303 3 -3 673 -2 672 305 0 305 0 0 -675z"/>
<path d="M4945 6153 c-30 -7 -62 -41 -68 -71 -7 -34 15 -87 41 -101 15 -8 393
-11 1267 -11 1327 0 1291 -1 1309 45 9 26 7 74 -5 97 -26 49 9 48 -1301 47
-673 -1 -1232 -3 -1243 -6z"/>
<path d="M4904 5207 c-38 -33 -38 -98 0 -135 l26 -27 654 0 654 0 26 24 c14
13 28 36 31 52 7 32 -16 83 -44 99 -13 6 -243 10 -670 10 l-650 0 -27 -23z"/>
</g>
</svg>
